<?xml version="1.0" standalone="no"?><!DOCTYPE svg PUBLIC "-//W3C//DTD SVG 1.1//EN" "http://www.w3.org/Graphics/SVG/1.1/DTD/svg11.dtd"><svg t="1702721589892" class="icon" viewBox="0 0 1024 1024" version="1.1" xmlns="http://www.w3.org/2000/svg" p-id="1101" xmlns:xlink="http://www.w3.org/1999/xlink" width="128" height="128"><path d="M910.221717 796.444002H663.703335l-5.082071 154.85147h182.271898a36.333017 36.333017 0 0 1 36.314054 37.565608A36.958794 36.958794 0 0 1 840.058793 1023.999431h-105.870164l-360.296096-303.407239H948.147621V75.85181H75.85181v393.936373l-75.85181-63.867223V105.623645A105.52883 105.52883 0 0 1 105.415053 0H918.565416A105.547793 105.547793 0 0 1 1023.999431 105.642608v594.317892C1023.999431 758.309505 968.456943 796.444002 910.221717 796.444002zM75.85181 75.85181s5.290664 2.370369 0 0z m739.725811 549.92562h-554.476729l-52.754934-44.411234V189.629524h607.231663v436.147906z" fill="#478CFF" p-id="1102"></path></svg>