<?xml version="1.0" standalone="no"?><!DOCTYPE svg PUBLIC "-//W3C//DTD SVG 1.1//EN" "http://www.w3.org/Graphics/SVG/1.1/DTD/svg11.dtd"><svg t="1700965287097" class="icon" viewBox="0 0 1024 1024" version="1.1" xmlns="http://www.w3.org/2000/svg" p-id="1251" xmlns:xlink="http://www.w3.org/1999/xlink" width="128" height="128"><path d="M543.386973 196.168582c145.164751 0 266.789272 117.701149 266.789272 266.789272v184.398468c0 15.693487 3.923372 35.310345 15.693487 47.08046l62.773946 86.314176H198.130268l62.773947-86.314176c11.770115-15.693487 15.693487-31.386973 15.693486-47.08046v-184.398468C280.521073 313.869732 398.222222 196.168582 543.386973 196.168582m0-78.467433C355.065134 117.701149 198.130268 270.712644 198.130268 462.957854v184.398468l-78.467433 105.931034v54.927203c0 27.463602 23.54023 54.927203 54.927203 54.927203h745.440613c27.463602 0 54.927203-23.54023 54.927203-54.927203v-54.927203l-78.467433-105.931034v-184.398468c-7.846743-192.245211-160.858238-345.256705-353.103448-345.256705z m0 823.908046c-43.157088 0-78.467433-35.310345-78.467433-78.467433h-78.467433c0 86.314176 70.62069 160.858238 160.858238 160.858238S708.168582 953.37931 708.168582 863.141762h-78.467433c-3.923372 43.157088-39.233716 78.467433-86.314176 78.467433z m0 0" p-id="1252"></path><path d="M543.386973 196.168582c-19.616858 0-39.233716-7.846743-47.08046-27.463601-7.846743-15.693487-7.846743-35.310345 0-54.927203 7.846743-15.693487 27.463602-27.463602 47.08046-27.463602 27.463602 0 51.003831 23.54023 51.003832 54.927203 3.923372 31.386973-19.616858 54.927203-51.003832 54.927203h121.624521c7.846743-15.693487 11.770115-35.310345 11.770115-54.927203 0-74.544061-58.850575-133.394636-133.394636-133.394636s-133.394636 58.850575-133.394636 133.394636c0 19.616858 3.923372 35.310345 11.770115 54.927203h121.624521z m0 0" p-id="1253"></path></svg>