<?xml version="1.0" standalone="no"?><!DOCTYPE svg PUBLIC "-//W3C//DTD SVG 1.1//EN" "http://www.w3.org/Graphics/SVG/1.1/DTD/svg11.dtd"><svg t="1702744344189" class="icon" viewBox="0 0 1024 1024" version="1.1" xmlns="http://www.w3.org/2000/svg" p-id="1528" xmlns:xlink="http://www.w3.org/1999/xlink" width="128" height="128"><path d="M514.9184 507.8528m-450.816 0a450.816 450.816 0 1 0 901.632 0 450.816 450.816 0 1 0-901.632 0Z" fill="#59ADF8" p-id="1529"></path><path d="M330.3424 712.6528l-44.9024-81.92c-10.0864 12.1856-19.456 24.8832-30.3104 36.1984-14.8992 15.4624-24.576 12.288-30.5664-8.6016-10.5472-36.7104-2.2528-71.168 15.0016-103.3728 11.7248-21.8112 26.112-42.4448 41.216-62.1056 7.3728-9.6256 10.9568-18.0736 10.4448-30.3104-1.024-23.9104 0.1536-47.5648 20.0704-65.8944 3.9424-3.584 3.4816-12.5952 3.9936-19.1488 4.1984-55.9104 19.0464-108.1344 62.208-146.6368 57.088-50.944 123.9552-66.5088 197.8368-44.7488 72.0896 21.248 116.1216 69.888 134.0928 142.5408 1.7408 7.1168 2.7136 14.4896 4.0448 21.7088 3.9424 21.5552 3.2768 43.0592 18.3808 63.1296 9.472 12.5952 5.9904 34.6624 9.3696 52.3264 1.536 8.2432 3.584 17.5616 8.6016 23.7568 27.3408 33.28 51.3536 68.608 58.4704 111.6672 3.2256 19.456 0.768 40.448-2.4576 60.16-2.9184 17.7664-14.592 20.224-27.648 6.8608-11.3152-11.6224-21.0944-24.7808-31.5904-37.376-15.0528 27.4432-29.952 54.5792-45.0048 81.9712 9.1136 6.5536 19.4048 12.5952 28.1088 20.48 30.9248 27.904 23.9616 71.0656-15.5136 83.6096-64 20.3776-125.8496 16.4864-182.9376-24.2176-7.0656-5.0176-24.1664-4.1984-31.7952 1.024-59.3408 40.6016-122.7776 44.4416-187.904 20.6848-32.9728-12.032-37.7856-53.1456-11.8272-78.6432 8.8576-8.7552 19.8144-15.104 30.6176-23.1424z" fill="#FFFFFF" p-id="1530"></path></svg>