<?xml version="1.0" standalone="no"?><!DOCTYPE svg PUBLIC "-//W3C//DTD SVG 1.1//EN" "http://www.w3.org/Graphics/SVG/1.1/DTD/svg11.dtd"><svg t="1702721600340" class="icon" viewBox="0 0 1024 1024" version="1.1" xmlns="http://www.w3.org/2000/svg" p-id="1250" xmlns:xlink="http://www.w3.org/1999/xlink" width="128" height="128"><path d="M871.424 542.72h107.008v107.008h-107.008zM651.264 282.624v89.6h-85.504v85.504h85.504V392.192h85.504l0.512 65.536h155.136V369.664H977.92V217.6h-83.456V132.096H977.92V45.568h-86.528v84.992H803.84v152.064h-152.576z m240.128 8.704v78.336H803.84V291.328h87.552zM648.192 130.56H803.84V45.568h-238.592v172.032h82.944zM652.288 976.896v-107.52h-107.008v0.512zM652.288 717.312H716.8v87.552h107.52V542.72h-195.072v87.04h-83.968v194.56h107.008zM479.232 803.84v-86.528H392.704zM977.92 891.904v-87.04h-87.552v87.04h-87.552v86.528h175.616v-86.528zM134.656 459.264H460.8V45.568H45.568v324.608l89.088 89.088z m-4.096-328.704h245.248v243.712H130.56V130.56z" fill="#3399FF" p-id="1251"></path><path d="M189.44 200.704h115.712v115.712H189.44zM390.144 714.752v-66.56h89.088V542.72h-261.12z" fill="#3399FF" p-id="1252"></path></svg>